# xmcd CD database file
#
# Track frame offsets:
#	150
#	12019
#	24509
#	36819
#	49758
#	61712
#	78918
#	95638
#	112166
#	124582
#	139874
#	157437
#	174034
#	187680
#	203293
#	216085
#	228634
#	244551
#	261316
#
# Disc length: 3686 seconds
#
# Revision: 0
# Processed by: cddbd v1.5.2PL0 Copyright (c) Steve Scherf et al.
# Submitted via: CDex 1.50
#
DISCID=f50e6413
DTITLE=Various Artist - 016 - Tom Astor - Take it Easy - Die Collection - CD - 03 
DYEAR=2008
DGENRE=Country
TTITLE0=Ein unbekannter Stuntman
TTITLE1=Jeden Montag
TTITLE2=Zuviel du
TTITLE3=Und so bin ich auf den Hund gekommen
TTITLE4=Freunde
TTITLE5=Sturm und Drang
TTITLE6=Ich bin kein Mann fürs Paradies
TTITLE7=irgendwie wird's schon geh'n
TTITLE8=Wir sind stärker als die Stürme
TTITLE9=Es ist noch lange nicht genug
TTITLE10=So ist das Leben
TTITLE11=Verrückt sein und sonst gar nichts
TTITLE12=Was uns nicht umhaut (macht uns hart )
TTITLE13=Bist du einsam heut Nacht
TTITLE14=Freu' mich auf zuhause
TTITLE15=Hier riechts nach Freiheit
TTITLE16=Ich kann gut im Regen steh'n
TTITLE17=Freundschaft
TTITLE18=Geisterreiter
EXTD=YEAR: 2008
EXTT0=
EXTT1=
EXTT2=
EXTT3=
EXTT4=
EXTT5=
EXTT6=
EXTT7=
EXTT8=
EXTT9=
EXTT10=
EXTT11=
EXTT12=
EXTT13=
EXTT14=
EXTT15=
EXTT16=
EXTT17=
EXTT18=
PLAYORDER=
